<svg width="15" height="17" viewBox="0 0 15 17" fill="none" xmlns="http://www.w3.org/2000/svg">
<path fill-rule="evenodd" clip-rule="evenodd" d="M10.2083 1.25C8.48243 1.25 7.08333 2.64911 7.08333 4.375C7.08333 6.10089 8.48243 7.5 10.2083 7.5C11.9342 7.5 13.3333 6.10089 13.3333 4.375C13.3333 2.64911 11.9342 1.25 10.2083 1.25ZM5.83333 4.375C5.83333 1.95876 7.79207 0 10.2083 0C12.6246 0 14.5833 1.95876 14.5833 4.375C14.5833 6.79124 12.6246 8.75 10.2083 8.75C9.2269 8.75 8.32096 8.42685 7.59109 7.88114L4.01002 11.4595L5.23361 12.6831C5.47769 12.9271 5.47769 13.3229 5.23361 13.5669C4.98953 13.811 4.5938 13.811 4.34972 13.5669L3.12579 12.343L1.50905 13.9585L2.73361 15.1831C2.97769 15.4271 2.97769 15.8229 2.73361 16.0669C2.48953 16.311 2.0938 16.311 1.84973 16.0669L0.183058 14.4003C0.0658186 14.283 -3.18888e-05 14.124 1.15849e-08 13.9582C3.1912e-05 13.7924 0.0659435 13.6334 0.183228 13.5162L2.65479 11.0466C2.66382 11.0363 2.67324 11.0262 2.68306 11.0164C2.69299 11.0065 2.70318 10.9969 2.7136 10.9878L6.70649 6.99798C6.15818 6.26712 5.83333 5.359 5.83333 4.375Z" fill="#AD8361"/>
</svg>
